# xmcd
#
# Track frame offsets: 
#        212
#        15627
#        29477
#        52427
#        73277
#        85705
#        102452
#        121785
#        150165
#        178230
#        203807
#        220727
#        242945
#        267810
#        288145
#
# Disc length: 4273 seconds
#
# Revision: 3
# Processed by: cddbd v1.5.2PL0 Copyright (c) Steve Scherf et al.
# Submitted via: ExactAudioCopyFreeDBPlugin 1.0
#
DISCID=d710af0f
DTITLE=Mighty Sam McClain - Live In Japan
DYEAR=1988
DGENRE=Blues
TTITLE0=Every Day I Have The Blues
TTITLE1=Sweet Dreams
TTITLE2=Talk To Me, Talk To Me
TTITLE3=Fannie Mae
TTITLE4=Why
TTITLE5=Your Perfect Companion
TTITLE6=In The Same Old Way
TTITLE7=Pray
TTITLE8=A Change Is Gonna Come
TTITLE9=Whatever It Takes
TTITLE10=Forgive And Forget
TTITLE11=Dancin To The Music Of Love
TTITLE12=This Time I'm Gone For Good
TTITLE13=I Just Came To Get My Baby (Out Of Jail)
TTITLE14=The Blues Is Alright
EXTD=
EXTT0=
EXTT1=
EXTT2=
EXTT3=
EXTT4=
EXTT5=
EXTT6=
EXTT7=
EXTT8=
EXTT9=
EXTT10=
EXTT11=
EXTT12=
EXTT13=
EXTT14=
PLAYORDER=
